<svg width="30" height="23" viewBox="0 0 30 23" fill="none" xmlns="http://www.w3.org/2000/svg">
<path d="M22.8947 0H7.10526C3.18947 0 0 3.09733 0 6.9H30C30 3.09733 26.8105 0 22.8947 0ZM0 9.96667V16.1C0 19.9027 3.18947 23 7.10526 23H22.8947C26.8105 23 30 19.9027 30 16.1V9.96667H0ZM11.8421 17.6333H7.10526C6.23684 17.6333 5.52632 16.9433 5.52632 16.1C5.52632 15.2567 6.23684 14.5667 7.10526 14.5667H11.8421C12.7105 14.5667 13.4211 15.2567 13.4211 16.1C13.4211 16.9433 12.7105 17.6333 11.8421 17.6333Z" fill="#DADADA"/>
</svg>
