<svg width="75" height="75" viewBox="0 0 75 75" fill="none" xmlns="http://www.w3.org/2000/svg">
<path d="M42.0318 45.4154V40.0919C42.0318 37.9928 40.3241 36.2852 38.2251 36.2852C36.1261 36.2852 34.4184 37.9928 34.4184 40.0919V44.8983C34.4184 50.6905 32.2846 56.2515 28.4097 60.5568L23.0672 66.493C22.6183 66.9917 22.6588 67.7599 23.1576 68.2089C23.6562 68.6578 24.4243 68.6173 24.8733 68.1185L30.2158 62.1823C34.4928 57.43 36.8482 51.2918 36.8482 44.8983V40.0919C36.8482 39.3326 37.4659 38.715 38.2251 38.715C38.9843 38.715 39.602 39.3326 39.602 40.0919V45.4154C39.602 52.5433 36.9614 59.3733 32.1666 64.6476L26.9589 70.3761C26.5076 70.8725 26.5442 71.6411 27.0407 72.0924C27.2735 72.3041 27.5659 72.4083 27.8575 72.4083C28.1879 72.4083 28.5171 72.2743 28.7568 72.0106L33.9644 66.2821C39.1667 60.5596 42.0318 53.149 42.0318 45.4154Z" fill="#282828"/>
<path d="M47.2153 40.0918C47.2153 35.1346 43.1823 31.1016 38.2251 31.1016C33.2678 31.1016 29.2348 35.1346 29.2348 40.0918V44.8983C29.2348 49.4079 27.5734 53.7373 24.5567 57.0891L20.7586 61.3094C20.3098 61.8081 20.3503 62.5763 20.849 63.0253C21.3478 63.4742 22.1158 63.4334 22.5648 62.9349L26.3629 58.7147C29.7818 54.9159 31.6647 50.0092 31.6647 44.8983V40.0918C31.6647 36.4743 34.6077 33.5314 38.2252 33.5314C41.8427 33.5314 44.7857 36.4743 44.7857 40.0918V45.4154C44.7857 53.8353 41.6665 61.9039 36.0023 68.1344L31.6084 72.9679C31.1569 73.4642 31.1935 74.2329 31.69 74.6842C31.9228 74.8959 32.2152 75 32.5067 75C32.8372 75 33.1664 74.8661 33.4061 74.6024L37.8002 69.7688C43.8716 63.0901 47.2153 54.4413 47.2153 45.4154V40.0918Z" fill="#282828"/>
<path d="M52.399 40.0918C52.399 32.2763 46.0407 25.918 38.2251 25.918C30.4096 25.918 24.0512 32.2763 24.0512 40.0918V44.8983C24.0512 48.1251 22.8624 51.2231 20.7038 53.6215L17.2839 57.4214C16.835 57.9201 16.8755 58.6883 17.3743 59.1373C17.8729 59.5862 18.6412 59.5453 19.0901 59.0469L22.5099 55.247C25.0708 52.4017 26.481 48.7264 26.481 44.8983V40.0918C26.481 33.6161 31.7494 28.3478 38.2251 28.3478C44.7009 28.3478 49.9692 33.6161 49.9692 40.0918V45.4154C49.9692 55.1278 46.3711 64.4346 39.8377 71.6212L38.6217 72.9588C38.1704 73.4553 38.207 74.2238 38.7035 74.6751C38.9362 74.8867 39.2288 74.991 39.5202 74.991C39.8507 74.991 40.1798 74.857 40.4196 74.5933L41.6354 73.2556C48.5763 65.6207 52.3988 55.7336 52.3988 45.4154L52.399 40.0918Z" fill="#907FFA"/>
<path d="M18.8676 40.0919C18.8676 40.763 19.4116 41.3068 20.0825 41.3068C20.7535 41.3068 21.2974 40.763 21.2974 40.0919C21.2974 36.0009 22.7827 32.049 25.4798 28.9642C28.1517 25.908 31.819 23.9094 35.8058 23.3366C36.4699 23.2412 36.9309 22.6253 36.8355 21.9613C36.7401 21.2972 36.1238 20.8368 35.4603 20.9315C30.8987 21.5869 26.7045 23.8716 23.6504 27.365C20.5662 30.8926 18.8676 35.4125 18.8676 40.0919Z" fill="#282828"/>
<path d="M21.2974 44.8983C21.2974 44.2271 20.7535 43.6833 20.0825 43.6833C19.4116 43.6833 18.8676 44.2271 18.8676 44.8983C18.8676 46.8424 18.1515 48.7087 16.8511 50.1536L13.8091 53.5338C13.3602 54.0324 13.4007 54.8005 13.8995 55.2495C14.1318 55.4585 14.4222 55.5614 14.7119 55.5614C15.0443 55.5614 15.3755 55.4256 15.6153 55.1592L18.6572 51.7791C20.3597 49.8873 21.2974 47.4437 21.2974 44.8983Z" fill="#282828"/>
<path d="M55.1979 55.7435C54.5485 55.5744 53.885 55.9623 53.7149 56.6112C53.2664 58.3249 52.7085 60.0285 52.0562 61.6746C51.809 62.2984 52.1143 63.0045 52.7381 63.2516C52.8851 63.3097 53.0363 63.3373 53.1854 63.3373C53.6689 63.3373 54.1262 63.0465 54.3152 62.5696C55.0035 60.8323 55.5923 59.0347 56.0657 57.2263C56.2354 56.5774 55.8468 55.9134 55.1979 55.7435Z" fill="#282828"/>
<path d="M51.1541 25.6963C50.655 25.2475 49.8869 25.2886 49.4383 25.7875C48.9898 26.2864 49.0306 27.0546 49.5295 27.5031C53.1031 30.7156 55.1526 35.3039 55.1526 40.0918V45.4153C55.1526 47.4358 55.0133 49.4718 54.7384 51.467C54.6468 52.1318 55.1114 52.7447 55.7761 52.8363C55.8323 52.844 55.8882 52.8478 55.9434 52.8478C56.5408 52.8478 57.0616 52.4068 57.1453 51.7984C57.4353 49.6937 57.5824 47.5461 57.5824 45.4152V40.0918C57.5825 34.6158 55.2394 29.3689 51.1541 25.6963Z" fill="#282828"/>
<path d="M45.4745 24.7963C45.6431 24.8767 45.8208 24.9146 45.996 24.9146C46.45 24.9146 46.8856 24.6588 47.0937 24.2216C47.3822 23.6159 47.1248 22.8909 46.5192 22.6025C44.7687 21.7691 42.9083 21.2068 40.9896 20.9313C40.3245 20.8365 39.7097 21.2971 39.6143 21.9611C39.5189 22.625 39.9799 23.2409 40.6441 23.3363C42.3203 23.5772 43.9454 24.0683 45.4745 24.7963Z" fill="#282828"/>
<path d="M38.2251 15.5508C37.7706 15.5508 37.3109 15.5634 36.8584 15.5884C36.1884 15.6253 35.6753 16.1984 35.7122 16.8682C35.7493 17.5382 36.3218 18.0541 36.9922 18.0143C37.4003 17.9918 37.815 17.9804 38.2249 17.9804C50.4171 17.9804 60.3362 27.8994 60.3362 40.0917V45.4152C60.3362 46.0863 60.8801 46.6301 61.5511 46.6301C62.222 46.6301 62.766 46.0863 62.766 45.4152V40.0918C62.7661 26.5599 51.757 15.5508 38.2251 15.5508Z" fill="#282828"/>
<path d="M24.9415 22.1424C25.1807 22.1424 25.4226 22.0718 25.634 21.9249C27.6552 20.5193 29.8751 19.47 32.2322 18.8053C32.878 18.6232 33.254 17.952 33.0719 17.3063C32.8898 16.6606 32.2184 16.2851 31.5729 16.4666C28.9552 17.2046 26.4904 18.3697 24.2469 19.9297C23.6959 20.3128 23.5599 21.0699 23.943 21.6207C24.179 21.9605 24.5571 22.1424 24.9415 22.1424Z" fill="#282828"/>
<path d="M16.1139 44.8983V40.0918C16.1139 34.4401 18.2542 29.0576 22.1406 24.9355C22.6008 24.4473 22.5783 23.6785 22.0901 23.2181C21.6018 22.7578 20.8329 22.7806 20.3727 23.2687C16.0594 27.8433 13.6841 33.8181 13.6841 40.0918V44.8983C13.6841 45.5597 13.4404 46.1945 12.9982 46.6858L11.5002 48.3503C11.0513 48.849 11.0918 49.6172 11.5905 50.066C11.8227 50.2752 12.1133 50.378 12.4029 50.378C12.7353 50.378 13.0664 50.2424 13.3063 49.976L14.8044 48.3115C15.6488 47.373 16.1139 46.1608 16.1139 44.8983Z" fill="#282828"/>
<path d="M66.4067 30.6324C65.0742 26.6724 62.9566 23.0949 60.1126 19.9992C59.6585 19.5051 58.8901 19.4724 58.396 19.9265C57.9019 20.3805 57.8694 21.149 58.3233 21.6432C60.9356 24.4867 62.8806 27.7718 64.1039 31.4071C64.2747 31.9146 64.748 32.2349 65.2552 32.2349C65.3836 32.2349 65.5144 32.2143 65.6428 32.1711C66.2786 31.9571 66.6207 31.2682 66.4067 30.6324Z" fill="#907FFA"/>
<path d="M47.8262 11.9581C47.1917 11.7409 46.5007 12.0793 46.2835 12.7143C46.0662 13.3491 46.4048 14.0398 47.0396 14.2569C49.7186 15.1736 52.2337 16.5015 54.5153 18.2043C54.7335 18.3671 54.9883 18.4455 55.241 18.4455C55.6113 18.4455 55.9771 18.2769 56.2157 17.9571C56.6171 17.4195 56.5063 16.6582 55.9687 16.2569C53.4843 14.4031 50.7448 12.9566 47.8262 11.9581Z" fill="#282828"/>
<path d="M19.3481 20.3955C24.4586 15.4955 31.1626 12.797 38.2251 12.797C39.5365 12.797 40.8553 12.8914 42.1445 13.0774C42.8092 13.1743 43.4247 12.7126 43.5206 12.0485C43.6165 11.3843 43.156 10.7684 42.4918 10.6725C41.0877 10.47 39.6522 10.3672 38.2251 10.3672C30.5328 10.3672 23.2316 13.3058 17.6665 18.6416C12.1188 23.961 8.87432 31.0993 8.53091 38.7416C8.50078 39.4119 9.01979 39.9799 9.68993 40.0098C9.70856 40.0108 9.72702 40.0111 9.74549 40.0111C10.3913 40.0111 10.929 39.5025 10.9583 38.8508C11.2734 31.8348 14.2529 25.2807 19.3481 20.3955Z" fill="#907FFA"/>
<path d="M38.2251 5.18359C35.5083 5.18359 32.801 5.4985 30.1786 6.11955C29.5256 6.27409 29.1218 6.92884 29.2763 7.58165C29.431 8.23446 30.0857 8.63845 30.7386 8.48376C33.1778 7.90643 35.6965 7.6134 38.2251 7.6134C47.1337 7.6134 55.4495 11.1627 61.6403 17.6072C61.8789 17.8555 62.1974 17.9806 62.5167 17.9806C62.8194 17.9806 63.1227 17.8681 63.3582 17.6419C63.8421 17.1769 63.8576 16.4078 63.3927 15.9241C60.1671 12.5663 56.378 9.92479 52.131 8.07344C47.7321 6.15584 43.0535 5.18359 38.2251 5.18359Z" fill="#282828"/>
<path d="M10.9353 20.3139C11.1575 20.4879 11.4214 20.5723 11.6835 20.5723C12.0443 20.5723 12.4013 20.4124 12.6409 20.1064C16.1033 15.6838 20.6616 12.2149 25.8229 10.0742C26.4426 9.81713 26.7368 9.10633 26.4797 8.48657C26.2227 7.86681 25.5115 7.57231 24.8921 7.82971C19.3455 10.1301 14.4475 13.8572 10.7278 18.6082C10.3141 19.1367 10.4071 19.9003 10.9353 20.3139Z" fill="#282828"/>
<path d="M21.3796 6.27295C21.5568 6.27295 21.7368 6.23407 21.9068 6.15178C27.0221 3.68197 32.5123 2.42981 38.2251 2.42981C41.2021 2.42981 44.1671 2.78002 47.0373 3.47073C47.6893 3.62721 48.3457 3.22613 48.5027 2.57381C48.6596 1.92149 48.2581 1.26528 47.6056 1.10832C44.5495 0.372894 41.3934 0 38.2251 0C32.1434 0 26.2978 1.33348 20.8505 3.96366C20.2463 4.2554 19.993 4.98175 20.2847 5.58596C20.4941 6.01993 20.9279 6.27295 21.3796 6.27295Z" fill="#282828"/>
<path d="M52.1151 5.0836C53.3676 5.58236 54.6073 6.15579 55.7997 6.7877C55.981 6.88392 56.1757 6.92944 56.3675 6.92944C56.8029 6.92944 57.2239 6.69472 57.4419 6.28311C57.756 5.69024 57.5302 4.95498 56.9373 4.64073C55.6679 3.96799 54.3478 3.35746 53.014 2.82631C52.3905 2.57798 51.6841 2.88219 51.4358 3.50536C51.1876 4.12868 51.4918 4.83543 52.1151 5.0836Z" fill="#907FFA"/>
</svg>
