<svg width="47" height="58" viewBox="0 0 47 58" fill="none" xmlns="http://www.w3.org/2000/svg">
<path d="M44.7984 46.1432C39.5736 51.4624 32.5201 54.5934 25.0705 54.9002C17.6208 55.2071 10.3337 52.6667 4.68926 47.7952L10.3283 47.136C10.6669 47.0925 10.9747 46.9173 11.1848 46.6483C11.395 46.3793 11.4906 46.0383 11.451 45.6992C11.4113 45.3602 11.2395 45.0504 10.9729 44.8372C10.7063 44.624 10.3664 44.5246 10.027 44.5604L2.05179 45.4924C1.53745 45.5594 1.0699 45.8255 0.749557 46.2334C0.429213 46.6413 0.281624 47.1587 0.338485 47.6742L1.22109 56.1008C1.25786 56.4419 1.42834 56.7545 1.69517 56.9701C1.96201 57.1857 2.30343 57.2867 2.64462 57.251C2.98581 57.2153 3.29894 57.0458 3.51537 56.7797C3.73181 56.5135 3.83391 56.1724 3.79928 55.8311L3.18197 49.9357C9.33361 55.1508 17.2292 57.8479 25.2858 57.4863C33.3425 57.1247 40.9647 53.731 46.6244 47.9857C46.865 47.7428 47 47.4147 47 47.0727C47 46.7308 46.8649 46.4027 46.6242 46.1598C46.3835 45.9169 46.0566 45.7789 45.7147 45.7758C45.3728 45.7727 45.0434 45.9048 44.7984 46.1432Z" fill="#001A82"/>
<path d="M23.6207 0C19.2609 0 14.9989 1.29285 11.3738 3.71505C7.74875 6.13725 4.92334 9.58002 3.2549 13.608C1.58646 17.636 1.14991 22.0682 2.00048 26.3443C2.85104 30.6204 4.95051 34.5482 8.03339 37.6311C11.1163 40.714 15.0441 42.8135 19.3202 43.664C23.5963 44.5146 28.0285 44.078 32.0565 42.4096C36.0845 40.7412 39.5272 37.9157 41.9494 34.2907C44.3717 30.6656 45.6645 26.4036 45.6645 22.0438C45.6562 16.2 43.3311 10.5979 39.1989 6.46564C35.0666 2.33342 29.4645 0.00829431 23.6207 0ZM24.9174 33.4417V35.5164C24.914 35.8581 24.7759 36.1846 24.5331 36.425C24.2903 36.6654 23.9624 36.8002 23.6207 36.8002C23.279 36.8002 22.9512 36.6654 22.7084 36.425C22.4655 36.1846 22.3274 35.8581 22.324 35.5164V33.4288C21.2387 33.3014 20.1938 32.9412 19.2605 32.3728C18.3273 31.8043 17.5278 31.0411 16.9168 30.1352C16.7378 29.8429 16.6815 29.4918 16.7602 29.1582C16.839 28.8247 17.0463 28.5358 17.3372 28.3544C17.628 28.1731 17.9787 28.114 18.3128 28.1901C18.647 28.2662 18.9375 28.4713 19.1212 28.7607C19.635 29.4649 20.3142 30.0319 21.0989 30.4118C21.8835 30.7917 22.7496 30.9728 23.6207 30.9391C29.4558 30.9391 31.0897 24.0666 23.4132 23.2886C13.299 22.2642 14.2586 11.8388 22.324 10.6459V8.57115C22.3274 8.22949 22.4655 7.90298 22.7084 7.66259C22.9512 7.4222 23.279 7.28735 23.6207 7.28735C23.9624 7.28735 24.2903 7.4222 24.5331 7.66259C24.7759 7.90298 24.914 8.22949 24.9174 8.57115V10.6588C25.9784 10.7866 27.0008 11.1354 27.9187 11.6825C28.8367 12.2297 29.6297 12.9632 30.2468 13.8357C30.4344 14.1229 30.5005 14.4727 30.4307 14.8085C30.3609 15.1443 30.1609 15.4388 29.8745 15.6275C29.5881 15.8161 29.2385 15.8836 28.9024 15.8151C28.5664 15.7466 28.2711 15.5478 28.0813 15.2621C27.5662 14.5731 26.8906 14.0203 26.1132 13.652C25.3358 13.2836 24.4801 13.1108 23.6207 13.1485C17.8764 13.1485 16.1129 19.9431 23.6726 20.7082C33.8776 21.7456 33.0736 32.2358 24.9174 33.4417Z" fill="#907FFA"/>
</svg>
