<svg width="28" height="28" viewBox="0 0 28 28" fill="none" xmlns="http://www.w3.org/2000/svg">
<path fill-rule="evenodd" clip-rule="evenodd" d="M15.1667 21.2917C19.8381 21.2917 23.625 17.5048 23.625 12.8334C23.625 8.16194 19.8381 4.37502 15.1667 4.37502C10.4953 4.37502 6.70833 8.16194 6.70833 12.8334C6.70833 17.5048 10.4953 21.2917 15.1667 21.2917ZM25.375 12.8334C25.375 18.4713 20.8046 23.0417 15.1667 23.0417C9.52876 23.0417 4.95833 18.4713 4.95833 12.8334C4.95833 7.19545 9.52876 2.62502 15.1667 2.62502C20.8046 2.62502 25.375 7.19545 25.375 12.8334Z" fill="#907FFA"/>
<path fill-rule="evenodd" clip-rule="evenodd" d="M8.78534 19.2146C8.44364 18.8729 7.88962 18.8729 7.54791 19.2146L2.88124 23.8813C2.53953 24.223 2.53953 24.777 2.88124 25.1187C3.22295 25.4604 3.77697 25.4604 4.11868 25.1187L8.78534 20.452C9.12705 20.1103 9.12705 19.5563 8.78534 19.2146Z" fill="#907FFA"/>
</svg>
