<svg width="47" height="56" viewBox="0 0 47 56" fill="none" xmlns="http://www.w3.org/2000/svg">
<path d="M46.037 9.71251L45.1662 1.39869C45.1283 1.06351 44.9595 0.756882 44.6966 0.545573C44.4336 0.334264 44.0979 0.235393 43.7624 0.270489C43.4269 0.305584 43.1189 0.471806 42.9054 0.732955C42.6919 0.994103 42.5902 1.32903 42.6225 1.66479L43.2315 7.48131C37.1622 2.33597 29.3723 -0.325042 21.4235 0.0317482C13.4747 0.388538 5.95451 3.73676 0.370596 9.40517C0.133159 9.64483 -3.17856e-05 9.96857 5.68991e-09 10.3059C3.1797e-05 10.6433 0.133283 10.967 0.370765 11.2066C0.608247 11.4463 0.930745 11.5824 1.2681 11.5855C1.60545 11.5885 1.93037 11.4583 2.17216 11.223C7.32695 5.97501 14.2861 2.88594 21.636 2.58321C28.9859 2.28049 36.1755 4.78681 41.7444 9.5931L36.1808 10.2435C35.8582 10.2833 35.5629 10.4443 35.3547 10.6939C35.1465 10.9435 35.0411 11.263 35.0598 11.5875C35.0786 11.912 35.2201 12.2172 35.4557 12.4412C35.6912 12.6651 36.0032 12.7911 36.3282 12.7934C36.3783 12.7936 36.4284 12.7907 36.4782 12.7847L44.3466 11.8651C44.854 11.799 45.3153 11.5365 45.6314 11.134C45.9475 10.7316 46.0931 10.2212 46.037 9.71251Z" fill="#001A82"/>
<path d="M22.9737 12.3361C18.6722 12.3361 14.4673 13.6117 10.8908 16.0014C7.31421 18.3912 4.52662 21.7879 2.88051 25.762C1.2344 29.736 0.803701 34.109 1.64288 38.3278C2.48206 42.5467 4.55343 46.4219 7.59504 49.4635C10.6367 52.5052 14.5119 54.5765 18.7308 55.4157C22.9496 56.2549 27.3225 55.8242 31.2966 54.1781C35.2707 52.532 38.6674 49.7444 41.0571 46.1678C43.4469 42.5913 44.7225 38.3864 44.7225 34.0849C44.7143 28.3192 42.4203 22.7921 38.3434 18.7152C34.2665 14.6383 28.7393 12.3443 22.9737 12.3361ZM24.2531 45.3302V47.3772C24.2497 47.7143 24.1134 48.0364 23.8739 48.2736C23.6343 48.5107 23.3108 48.6438 22.9737 48.6438C22.6366 48.6438 22.3131 48.5107 22.0736 48.2736C21.834 48.0364 21.6978 47.7143 21.6944 47.3772V45.3174C20.6236 45.1918 19.5926 44.8364 18.6719 44.2756C17.7512 43.7148 16.9624 42.9617 16.3595 42.0679C16.1829 41.7796 16.1274 41.4331 16.2051 41.1041C16.2828 40.775 16.4874 40.4899 16.7743 40.311C17.0612 40.1321 17.4072 40.0739 17.7369 40.1489C18.0666 40.224 18.3533 40.4263 18.5344 40.7118C19.0414 41.4066 19.7115 41.9661 20.4856 42.3409C21.2598 42.7157 22.1143 42.8944 22.9737 42.8611C28.7307 42.8611 30.3427 36.0806 22.769 35.313C12.7902 34.3023 13.7369 24.0165 21.6944 22.8395V20.7925C21.6978 20.4555 21.834 20.1333 22.0736 19.8961C22.3131 19.659 22.6366 19.5259 22.9737 19.5259C23.3108 19.5259 23.6343 19.659 23.8739 19.8961C24.1134 20.1333 24.2497 20.4555 24.2531 20.7925V22.8523C25.2998 22.9784 26.3086 23.3224 27.2142 23.8623C28.1199 24.4022 28.9023 25.1258 29.5111 25.9867C29.6962 26.27 29.7614 26.6151 29.6926 26.9464C29.6237 27.2777 29.4264 27.5683 29.1438 27.7544C28.8612 27.9405 28.5164 28.0071 28.1848 27.9396C27.8532 27.872 27.5619 27.6758 27.3746 27.3939C26.8664 26.7141 26.1999 26.1688 25.4329 25.8054C24.6658 25.4419 23.8217 25.2714 22.9737 25.3086C17.3063 25.3086 15.5664 32.0123 23.0249 32.7671C33.0933 33.7906 32.3001 44.1405 24.2531 45.3302Z" fill="#907FFA"/>
</svg>
