<svg width="128" height="128" viewBox="0 0 128 128" fill="none" xmlns="http://www.w3.org/2000/svg">
<g clip-path="url(#clip0_27_20976)">
<path d="M15.3229 28.9376C14.4161 28.3736 13.2239 28.6493 12.6624 29.5558C12.0981 30.4626 12.3739 31.6521 13.2804 32.2163C13.5999 32.4146 13.9526 32.5098 14.3001 32.5098C14.9439 32.5098 15.5751 32.1853 15.9406 31.5981C16.5049 30.6916 16.2266 29.4991 15.3229 28.9376Z" fill="#907FFA"/>
<path d="M27.6541 13.1579C26.8016 13.8017 26.6314 15.0124 27.2754 15.8647C27.6541 16.3669 28.2336 16.6322 28.8181 16.6322C29.2226 16.6322 29.6321 16.5059 29.9796 16.2432C30.8321 15.5994 30.9993 14.3889 30.3584 13.5364C29.7169 12.6864 28.5039 12.5164 27.6541 13.1579Z" fill="#907FFA"/>
<path d="M10.169 38.4359C9.17496 38.0497 8.05721 38.5414 7.67096 39.5379C7.28196 40.5322 7.77646 41.6499 8.77046 42.0387C8.99946 42.1262 9.23646 42.1702 9.46846 42.1702C10.2437 42.1702 10.9725 41.7014 11.2712 40.9364C11.6577 39.9427 11.1632 38.8224 10.169 38.4359Z" fill="#907FFA"/>
<path d="M22.1295 20.5442C21.3413 19.8232 20.1208 19.8797 19.4023 20.6655C18.6813 21.4535 18.7353 22.6742 19.5233 23.3955C19.8943 23.7327 20.3603 23.9002 20.8263 23.9002C21.3493 23.9002 21.8695 23.689 22.2505 23.2745L22.253 23.2717C22.9715 22.4862 22.9175 21.2627 22.1295 20.5442Z" fill="#907FFA"/>
<path d="M8.73986 80.7275C7.74561 81.1138 7.25111 82.2315 7.63761 83.2255C7.93386 83.993 8.66286 84.462 9.43786 84.462C9.66986 84.462 9.90661 84.4183 10.1359 84.3305C11.1301 83.947 11.6246 82.8265 11.2409 81.8325C10.8541 80.8358 9.73661 80.3413 8.73986 80.7275Z" fill="#907FFA"/>
<path d="M5.51525 63.3122C6.5815 63.3122 7.44675 62.4467 7.44675 61.3807C7.44675 60.3142 6.58375 59.4492 5.51525 59.4492C4.44875 59.4465 3.58375 60.312 3.58375 61.378C3.581 62.447 4.4465 63.3095 5.5125 63.3122H5.51525Z" fill="#907FFA"/>
<path d="M8.39188 71.7854C8.19863 70.7374 7.18913 70.0444 6.14088 70.2377C5.09263 70.4334 4.39988 71.4404 4.59313 72.4886C4.76563 73.4181 5.57688 74.0699 6.49138 74.0699C6.60713 74.0699 6.72563 74.0596 6.84388 74.0364C7.89463 73.8431 8.58763 72.8336 8.39188 71.7854Z" fill="#907FFA"/>
<path d="M6.15407 52.5238C6.27507 52.5473 6.39357 52.5573 6.51232 52.5573C7.42382 52.5573 8.23507 51.9083 8.40757 50.9785C8.60332 49.9305 7.91307 48.921 6.86482 48.7278C5.81407 48.5293 4.80732 49.2223 4.61132 50.2703C4.41557 51.3185 5.10557 52.328 6.15407 52.5238Z" fill="#907FFA"/>
<path d="M119.046 81.3353C118.055 80.9385 116.932 81.4203 116.535 82.4093C116.138 83.401 116.62 84.5238 117.612 84.9203C117.846 85.0155 118.091 85.0593 118.328 85.0593C119.095 85.0593 119.819 84.601 120.123 83.8438C120.517 82.855 120.035 81.7295 119.046 81.3353Z" fill="#907FFA"/>
<path d="M114.441 91.1091C113.542 90.5374 112.348 90.8054 111.776 91.7039C111.204 92.6054 111.469 93.7979 112.371 94.3721C112.69 94.5756 113.051 94.6734 113.403 94.6734C114.042 94.6734 114.668 94.3566 115.036 93.7771C115.608 92.8759 115.343 91.6834 114.441 91.1091Z" fill="#907FFA"/>
<path d="M113.041 29.4836C112.129 30.0348 111.838 31.2248 112.391 32.1366C112.755 32.7363 113.393 33.0661 114.045 33.0661C114.387 33.0661 114.733 32.9761 115.047 32.7853C115.959 32.2316 116.247 31.0443 115.696 30.1326C115.142 29.2208 113.955 28.9298 113.041 29.4836Z" fill="#907FFA"/>
<path d="M121.761 70.8736C120.713 70.6676 119.698 71.3501 119.492 72.3959C119.289 73.4441 119.968 74.4589 121.017 74.6649C121.14 74.6881 121.267 74.7009 121.39 74.7009C122.294 74.7009 123.103 74.0621 123.283 73.1429C123.489 72.0943 122.807 71.0798 121.761 70.8736Z" fill="#907FFA"/>
<path d="M119.706 51.5965C119.871 52.5337 120.684 53.1957 121.607 53.1957C121.717 53.1957 121.828 53.1855 121.941 53.1647C122.992 52.982 123.695 51.9802 123.51 50.9292C123.327 49.8785 122.325 49.1752 121.274 49.3607C120.223 49.544 119.52 50.5457 119.706 51.5965Z" fill="#907FFA"/>
<path d="M122.505 60.0953C121.436 60.0851 120.563 60.9401 120.553 62.0088C120.543 63.0753 121.398 63.9483 122.464 63.9586H122.485C123.543 63.9586 124.406 63.1063 124.416 62.0476C124.427 60.9786 123.572 60.1058 122.505 60.0953Z" fill="#907FFA"/>
<path d="M118.765 42.7782C118.992 42.7782 119.221 42.7397 119.445 42.6547C120.442 42.2787 120.947 41.166 120.573 40.1667C120.197 39.1675 119.085 38.6627 118.085 39.0387C117.086 39.4147 116.581 40.5272 116.957 41.5267C117.249 42.3017 117.985 42.7782 118.765 42.7782Z" fill="#907FFA"/>
<path d="M68.6059 117.796V117.793C67.5421 117.881 66.7489 118.81 66.8339 119.874C66.9161 120.886 67.7609 121.651 68.7576 121.651C68.8116 121.651 68.8634 121.651 68.9149 121.646C69.9786 121.561 70.7719 120.629 70.6869 119.565C70.5994 118.502 69.6671 117.708 68.6059 117.796Z" fill="#907FFA"/>
<path d="M78.8898 115.998C77.8595 116.279 77.252 117.34 77.5325 118.37C77.767 119.231 78.547 119.794 79.3973 119.794C79.5645 119.794 79.7345 119.774 79.9045 119.727C80.9348 119.447 81.5422 118.386 81.2617 117.355C80.9812 116.325 79.92 115.72 78.8898 115.998Z" fill="#907FFA"/>
<path d="M106.329 21.0155C105.533 21.7262 105.466 22.947 106.177 23.7427C106.558 24.1702 107.086 24.3865 107.616 24.3865C108.075 24.3865 108.533 24.2242 108.904 23.8947C109.697 23.1837 109.767 21.9632 109.056 21.1672C108.345 20.3742 107.124 20.3047 106.329 21.0155Z" fill="#907FFA"/>
<path d="M97.5952 106.925C96.7374 107.558 96.5574 108.769 97.1909 109.627C97.5694 110.139 98.1539 110.41 98.7464 110.41C99.1457 110.41 99.5472 110.286 99.8922 110.031C100.75 109.397 100.93 108.187 100.297 107.329C99.6634 106.472 98.4529 106.291 97.5952 106.925Z" fill="#907FFA"/>
<path d="M88.6638 112.334C87.7033 112.8 87.3038 113.954 87.7703 114.914C88.1051 115.602 88.7928 116.004 89.5088 116.004C89.7921 116.004 90.0806 115.942 90.3508 115.808C91.3116 115.342 91.7108 114.188 91.2446 113.227C90.7783 112.269 89.6246 111.867 88.6638 112.334Z" fill="#907FFA"/>
<path d="M108.116 99.8735C107.336 99.1447 106.115 99.1885 105.386 99.9687C104.66 100.749 104.704 101.972 105.484 102.699C105.855 103.046 106.329 103.216 106.8 103.216C107.318 103.216 107.833 103.01 108.214 102.603C108.94 101.82 108.899 100.599 108.116 99.8735Z" fill="#907FFA"/>
<path d="M100.889 13.5699C100.887 13.5699 100.887 13.5699 100.887 13.5699C100.045 12.9184 98.8318 13.0754 98.1775 13.9177C97.5258 14.7622 97.683 15.9754 98.5275 16.6269C98.8778 16.9002 99.295 17.0314 99.707 17.0314C100.284 17.0314 100.856 16.7714 101.237 16.2794C101.889 15.4344 101.732 14.2214 100.889 13.5699Z" fill="#907FFA"/>
<path d="M58.1575 117.683V117.68C57.0965 117.572 56.1487 118.345 56.0379 119.406C55.9297 120.467 56.7025 121.417 57.7635 121.525C57.8305 121.53 57.8972 121.535 57.9617 121.535C58.9402 121.535 59.78 120.794 59.883 119.8C59.9912 118.739 59.2185 117.791 58.1575 117.683Z" fill="#907FFA"/>
<path d="M50.797 108.205C64.1238 108.205 74.9273 97.3516 74.9273 83.9637C74.9273 70.5757 64.1238 59.7227 50.797 59.7227C37.4702 59.7227 26.6667 70.5757 26.6667 83.9637C26.6667 97.3516 37.4702 108.205 50.797 108.205Z" fill="#FFDBD3"/>
<path d="M84.7757 93.7568H44.8435C41.6337 93.7568 39.032 91.1548 39.032 87.9453V5.8115C39.032 2.602 41.634 0 44.8435 0H84.7757C87.9855 0 90.5872 2.602 90.5872 5.8115V87.945C90.5872 91.1547 87.9855 93.7568 84.7757 93.7568Z" fill="#907FFA"/>
<path d="M84.7756 0H74.4739C77.6836 0 80.2854 2.602 80.2854 5.8115V87.945C80.2854 91.1547 77.6834 93.7565 74.4739 93.7565H84.7756C87.9854 93.7565 90.5871 91.1545 90.5871 87.945V5.8115C90.5871 2.602 87.9851 0 84.7756 0V0Z" fill="#8677E2"/>
<path d="M39.032 8.76514H90.5872V80.9896H39.032V8.76514Z" fill="#EEEBFF"/>
<path d="M80.2854 8.76514H90.5872V80.9896H80.2854V8.76514Z" fill="#B7ABFF"/>
<path d="M46.849 96.6314C53.863 86.4319 50.7662 69.4161 38.9182 64.2894V40.9186C38.9182 37.5199 36.1757 34.7646 32.7925 34.7646C29.4092 34.7646 26.6667 37.5199 26.6667 40.9186V87.0106L17.574 96.1451L38.7485 117.417L48.046 108.076" fill="#FFDBD3"/>
<path d="M38.9185 64.2894V40.9186C38.9185 37.5199 36.1757 34.7649 32.7927 34.7649C29.4095 34.7649 26.667 37.5201 26.667 40.9186V64.3271C35.0892 68.0259 39.0557 77.7524 38.0727 86.7149C37.494 91.9929 41.5397 96.6314 46.8492 96.6314C53.8632 86.4319 50.7662 69.4161 38.9185 64.2894Z" fill="#FFD1C7"/>
<path d="M82.5601 27.9609V27.9352C82.5601 24.8257 85.0808 22.3049 88.1903 22.3049H91.5628C94.6723 22.3049 97.1931 24.8257 97.1931 27.9352V27.9609C97.1931 31.0704 94.6723 33.5912 91.5628 33.5912H88.1903C85.0808 33.5912 82.5601 31.0704 82.5601 27.9609Z" fill="#FFDBD3"/>
<path d="M91.5627 22.3049H88.1904C87.4187 22.3049 86.6832 22.4602 86.0134 22.7414C88.0419 23.5927 89.4667 25.5977 89.4667 27.9352V27.9609C89.4667 30.2987 88.0419 32.3034 86.0134 33.1547C86.6832 33.4357 87.4187 33.5912 88.1904 33.5912H91.5627C94.6722 33.5912 97.1929 31.0704 97.1929 27.9609V27.9352C97.1929 24.8257 94.6722 22.3049 91.5627 22.3049Z" fill="#FFD1C7"/>
<path d="M82.5601 39.2471V39.2213C82.5601 36.1118 85.0808 33.5911 88.1903 33.5911H91.5628C94.6723 33.5911 97.1931 36.1118 97.1931 39.2213V39.2471C97.1931 42.3566 94.6723 44.8773 91.5628 44.8773H88.1903C85.0808 44.8773 82.5601 42.3566 82.5601 39.2471Z" fill="#FFDBD3"/>
<path d="M91.5627 33.5911H88.1904C87.4187 33.5911 86.6832 33.7463 86.0134 34.0276C88.0419 34.8788 89.4667 36.8836 89.4667 39.2213V39.2471C89.4667 41.5848 88.0419 43.5896 86.0134 44.4408C86.6832 44.7218 87.4187 44.8773 88.1904 44.8773H91.5627C94.6722 44.8773 97.1929 42.3566 97.1929 39.2471V39.2213C97.1929 36.1118 94.6722 33.5911 91.5627 33.5911Z" fill="#FFD1C7"/>
<path d="M82.5601 50.5334V50.5077C82.5601 47.3982 85.0808 44.8774 88.1903 44.8774H91.5628C94.6723 44.8774 97.1931 47.3982 97.1931 50.5077V50.5334C97.1931 53.6429 94.6723 56.1637 91.5628 56.1637H88.1903C85.0808 56.1637 82.5601 53.6429 82.5601 50.5334Z" fill="#FFDBD3"/>
<path d="M91.5627 44.8774H88.1904C87.4187 44.8774 86.6832 45.0327 86.0134 45.3137C88.0419 46.1649 89.4667 48.1699 89.4667 50.5074V50.5332C89.4667 52.8709 88.0419 54.8757 86.0134 55.7269C86.6832 56.0079 87.4187 56.1632 88.1904 56.1632H91.5627C94.6722 56.1632 97.1929 53.6424 97.1929 50.5329V50.5072C97.1929 47.3982 94.6722 44.8774 91.5627 44.8774Z" fill="#FFD1C7"/>
<path d="M82.5601 61.8196V61.7938C82.5601 58.6843 85.0808 56.1636 88.1903 56.1636H91.5628C94.6723 56.1636 97.1931 58.6843 97.1931 61.7938V61.8196C97.1931 64.9291 94.6723 67.4498 91.5628 67.4498H88.1903C85.0808 67.4498 82.5601 64.9291 82.5601 61.8196Z" fill="#FFDBD3"/>
<path d="M91.5627 56.1636H88.1904C87.4187 56.1636 86.6832 56.3188 86.0134 56.6001C88.0419 57.4513 89.4667 59.4561 89.4667 61.7938V61.8196C89.4667 64.1573 88.0419 66.1621 86.0134 67.0133C86.6832 67.2943 87.4187 67.4498 88.1904 67.4498H91.5627C94.6722 67.4498 97.1929 64.9291 97.1929 61.8196V61.7938C97.1929 58.6843 94.6722 56.1636 91.5627 56.1636Z" fill="#FFD1C7"/>
<path d="M42.6863 125.483C39.3463 128.839 33.9281 128.839 30.5881 125.483L10.6476 105.452C7.31181 102.1 7.31181 96.6704 10.6476 93.3192C13.9876 89.9639 19.4058 89.9639 22.7458 93.3192L42.6861 113.351C46.0221 116.702 46.0221 122.132 42.6863 125.483Z" fill="#907FFA"/>
<path d="M46.4823 25.334C46.8578 25.7 47.344 25.882 47.8298 25.882C48.3325 25.882 48.835 25.6868 49.2135 25.2983L54.8675 19.4948C55.612 18.7308 55.5958 17.5078 54.8318 16.7633C54.0675 16.0185 52.8445 16.0348 52.1003 16.799L46.4468 22.6025C45.7023 23.3668 45.7183 24.5895 46.4823 25.334Z" fill="#907FFA"/>
<path d="M66.9302 16.7633C66.1662 16.0185 64.9429 16.0348 64.1987 16.799L46.4464 35.0215C45.7019 35.7855 45.7182 37.0085 46.4822 37.753C46.8577 38.119 47.3439 38.301 47.8297 38.301C48.3324 38.301 48.8349 38.1058 49.2134 37.7173L66.9657 19.4948C67.7104 18.7308 67.6942 17.5078 66.9302 16.7633Z" fill="#907FFA"/>
</g>
<defs>
<clipPath id="clip0_27_20976">
<rect width="128" height="128" fill="white"/>
</clipPath>
</defs>
</svg>
