<svg width="60" height="61" viewBox="0 0 60 61" fill="none" xmlns="http://www.w3.org/2000/svg">
<g clip-path="url(#clip0_99_920)">
<path d="M45.2019 36.9851H59.4797V25.5073H45.2019V36.9851ZM51.6789 29.0434C52.7195 29.0434 53.5629 30.0303 53.5629 31.2443C53.5629 32.4621 52.7195 33.4466 51.6789 33.4466C50.6383 33.4466 49.7948 32.4621 49.7948 31.2443C49.796 30.0303 50.6383 29.0434 51.6789 29.0434Z" fill="#907FFA"/>
<path d="M44.1426 23.3886H59.4797V14.8841C59.4797 12.8191 58.0248 11.1385 56.2356 11.1385H53.0526L51.7562 3.89415C51.493 2.41559 50.7082 1.18658 49.6064 0.515307C48.7442 -0.00873831 47.7523 -0.138502 46.8177 0.152218L11.935 10.9625C11.023 11.2433 10.2157 11.9158 9.66418 12.8528L9.69163 12.8703C9.36847 13.453 9.17383 14.1417 9.17383 14.8841V32.4534C10.5875 32.0441 12.081 31.8158 13.6282 31.8158C22.2762 31.8158 29.3109 38.6733 29.3109 47.1029C29.3109 48.4654 29.125 49.8018 28.7644 51.0994H56.2343C58.0236 51.0994 59.4784 49.4175 59.4784 47.3537V39.1037H44.1426C43.5574 39.1037 43.0833 38.6296 43.0833 38.0444V24.448C43.0845 23.8615 43.5587 23.3886 44.1426 23.3886ZM18.5243 11.1385L47.4466 2.17478C47.8022 2.06498 48.1603 2.11489 48.5097 2.32576C49.0824 2.67512 49.5191 3.40005 49.6738 4.26847L50.904 11.1385H18.5243Z" fill="#907FFA"/>
</g>
<circle cx="13.3273" cy="47.6911" r="13.3091" fill="#001A82"/>
<path d="M13.3279 42.1458V53.2368" stroke="white" stroke-width="2" stroke-linecap="round" stroke-linejoin="round"/>
<path d="M18.8729 47.6914L7.78202 47.6914" stroke="white" stroke-width="2" stroke-linecap="round" stroke-linejoin="round"/>
<defs>
<clipPath id="clip0_99_920">
<rect width="59.8909" height="59.8909" fill="white" transform="translate(0.0180664)"/>
</clipPath>
</defs>
</svg>
